<?xml version="1.0" encoding="UTF-8" standalone="no"?>
<!-- Created with Inkscape (http://www.inkscape.org/) -->

<svg
   xmlns:dc="http://purl.org/dc/elements/1.1/"
   xmlns:cc="http://creativecommons.org/ns#"
   xmlns:rdf="http://www.w3.org/1999/02/22-rdf-syntax-ns#"
   xmlns:svg="http://www.w3.org/2000/svg"
   xmlns="http://www.w3.org/2000/svg"
   xmlns:sodipodi="http://sodipodi.sourceforge.net/DTD/sodipodi-0.dtd"
   xmlns:inkscape="http://www.inkscape.org/namespaces/inkscape"
   width="800"
   height="800"
   id="svg2986"
   version="1.1"
   inkscape:version="0.48.4 r9939"
   sodipodi:docname="aaa.svg">
  <defs
     id="defs2988" />
  <sodipodi:namedview
     id="base"
     pagecolor="#ffffff"
     bordercolor="#666666"
     borderopacity="1.0"
     inkscape:pageopacity="0.0"
     inkscape:pageshadow="2"
     inkscape:zoom="0.35"
     inkscape:cx="375"
     inkscape:cy="520"
     inkscape:document-units="px"
     inkscape:current-layer="layer1"
     showgrid="false"
     inkscape:window-width="1858"
     inkscape:window-height="1057"
     inkscape:window-x="1974"
     inkscape:window-y="-8"
     inkscape:window-maximized="1" />
  <metadata
     id="metadata2991">
    <rdf:RDF>
      <cc:Work
         rdf:about="">
        <dc:format>image/svg+xml</dc:format>
        <dc:type
           rdf:resource="http://purl.org/dc/dcmitype/StillImage" />
        <dc:title />
      </cc:Work>
    </rdf:RDF>
  </metadata>
  <g
     inkscape:label="Layer 1"
     inkscape:groupmode="layer"
     id="layer1"
     transform="translate(0,-252.36218)">
    <path
       inkscape:connector-curvature="0"
       id="location-14-icon"
       d="m 402.859,375.60273 c -98.82671,0 -178.94706,80.11668 -178.94706,178.94889 0,98.82671 78.3181,213.683 178.94706,385.99859 100.6308,-172.31559 178.94706,-287.17188 178.94706,-385.99859 0,-98.83221 -80.11851,-178.94889 -178.94706,-178.94889 z m 0,238.77698 c -35.4418,0 -64.17328,-28.73148 -64.17328,-64.17512 0,-35.43996 28.73148,-64.17145 64.17328,-64.17145 35.44179,0 64.17511,28.73149 64.17511,64.17145 0,35.44364 -28.73332,64.17512 -64.17511,64.17512 z M 719.15656,406.57465 c 37.92792,37.92791 61.38466,90.3215 61.38466,148.19516 0,57.8755 -23.45674,110.2709 -61.38466,148.19515 l -32.48454,-32.4845 c 29.61155,-29.61336 47.92922,-70.52242 47.92922,-115.71065 0,-45.18642 -18.31579,-86.0973 -47.92922,-115.70883 l 32.48454,-32.48633 z m -94.07082,94.0745 c 13.85149,13.85147 22.41719,32.98685 22.41719,54.12248 0,21.13565 -8.5657,40.27103 -22.41719,54.1225 l 34.29037,34.2904 c 22.62804,-22.62436 36.62068,-53.88414 36.62068,-88.4129 0,-34.52691 -13.99264,-65.78486 -36.62068,-88.4129 l -34.29037,34.29042 z M 119.04229,439.06098 c -29.611538,29.61153 -47.929219,70.52241 -47.929219,115.70883 0,45.18823 18.315841,86.09729 47.929219,115.71065 l -32.484502,32.4845 C 48.629871,665.04071 25.173124,612.64713 25.173124,554.76981 c 0,-57.87366 23.456747,-110.26908 61.384664,-148.19516 l 32.484502,32.48633 z m 27.29591,27.29775 c -22.62803,22.62804 -36.62068,53.88599 -36.62068,88.4129 0,34.52876 13.99265,65.78854 36.62068,88.4129 l 34.29042,-34.2904 c -13.85147,-13.85147 -22.4172,-32.98503 -22.4172,-54.1225 0,-21.1338 8.56573,-40.27101 22.4172,-54.12248 L 146.3382,466.35873 z" />
  </g>
</svg>
